<mxfile host="app.diagrams.net" modified="2024-01-09T09:04:49.101Z" agent="Mozilla/5.0 (Windows NT 10.0; Win64; x64; rv:109.0) Gecko/20100101 Firefox/115.0" etag="pARxMK14FvryH-HC3X5e" version="22.1.17" type="github">
  <diagram name="Seite-1" id="i9KQZ9D_89Ocbi1L_LJ9">
    <mxGraphModel dx="2261" dy="754" grid="1" gridSize="10" guides="1" tooltips="1" connect="1" arrows="1" fold="1" page="1" pageScale="1" pageWidth="827" pageHeight="1169" math="0" shadow="0">
      <root>
        <mxCell id="0" />
        <mxCell id="1" parent="0" />
        <mxCell id="nM1pig36FVvHw8UYPWbk-1" value="Secure network zone" style="swimlane;whiteSpace=wrap;html=1;" parent="1" vertex="1">
          <mxGeometry x="-262" y="248" width="400" height="390" as="geometry">
            <mxRectangle x="-262" y="248" width="160" height="30" as="alternateBounds" />
          </mxGeometry>
        </mxCell>
        <mxCell id="nM1pig36FVvHw8UYPWbk-29" value="db" style="edgeStyle=orthogonalEdgeStyle;rounded=0;orthogonalLoop=1;jettySize=auto;html=1;exitX=0.75;exitY=1;exitDx=0;exitDy=0;" parent="nM1pig36FVvHw8UYPWbk-1" source="nM1pig36FVvHw8UYPWbk-2" target="nM1pig36FVvHw8UYPWbk-28" edge="1">
          <mxGeometry relative="1" as="geometry" />
        </mxCell>
        <mxCell id="nM1pig36FVvHw8UYPWbk-2" value="simple-secure-backup Controller" style="rounded=1;whiteSpace=wrap;html=1;arcSize=20;" parent="nM1pig36FVvHw8UYPWbk-1" vertex="1">
          <mxGeometry x="29" y="97" width="130" height="60" as="geometry" />
        </mxCell>
        <mxCell id="nM1pig36FVvHw8UYPWbk-3" value="Backup Storage" style="rounded=1;whiteSpace=wrap;html=1;rotation=0;" parent="nM1pig36FVvHw8UYPWbk-1" vertex="1">
          <mxGeometry x="29" y="276" width="130" height="60" as="geometry" />
        </mxCell>
        <mxCell id="nM1pig36FVvHw8UYPWbk-4" value="&lt;div&gt;any filesystem based&lt;/div&gt;&lt;div&gt;storage attachment&lt;br&gt;&lt;/div&gt;" style="endArrow=classic;html=1;rounded=0;entryX=0.25;entryY=0;entryDx=0;entryDy=0;exitX=0.25;exitY=1;exitDx=0;exitDy=0;" parent="nM1pig36FVvHw8UYPWbk-1" source="nM1pig36FVvHw8UYPWbk-2" target="nM1pig36FVvHw8UYPWbk-3" edge="1">
          <mxGeometry width="50" height="50" relative="1" as="geometry">
            <mxPoint x="-141" y="257" as="sourcePoint" />
            <mxPoint x="-91" y="207" as="targetPoint" />
          </mxGeometry>
        </mxCell>
        <mxCell id="nM1pig36FVvHw8UYPWbk-5" value="&lt;div&gt;simple-secure-backup&lt;/div&gt;&lt;div&gt;WebUI&lt;br&gt;&lt;/div&gt;" style="rounded=1;whiteSpace=wrap;html=1;" parent="nM1pig36FVvHw8UYPWbk-1" vertex="1">
          <mxGeometry x="244" y="97" width="130" height="60" as="geometry" />
        </mxCell>
        <mxCell id="nM1pig36FVvHw8UYPWbk-28" value="&lt;div&gt;config&lt;/div&gt;&lt;div&gt;store&lt;br&gt;&lt;/div&gt;" style="shape=cylinder3;whiteSpace=wrap;html=1;boundedLbl=1;backgroundOutline=1;size=15;" parent="nM1pig36FVvHw8UYPWbk-1" vertex="1">
          <mxGeometry x="192" y="257" width="60" height="80" as="geometry" />
        </mxCell>
        <mxCell id="zQfnRUd4QAPtmJri3Gq1-1" value="db" style="edgeStyle=orthogonalEdgeStyle;rounded=0;orthogonalLoop=1;jettySize=auto;html=1;exitX=0.25;exitY=1;exitDx=0;exitDy=0;entryX=0.5;entryY=0;entryDx=0;entryDy=0;entryPerimeter=0;" edge="1" parent="nM1pig36FVvHw8UYPWbk-1" source="nM1pig36FVvHw8UYPWbk-5" target="nM1pig36FVvHw8UYPWbk-28">
          <mxGeometry relative="1" as="geometry" />
        </mxCell>
        <mxCell id="nM1pig36FVvHw8UYPWbk-9" value="HTTP Access" style="edgeStyle=orthogonalEdgeStyle;rounded=0;orthogonalLoop=1;jettySize=auto;html=1;exitX=0.5;exitY=0.5;exitDx=0;exitDy=0;exitPerimeter=0;entryX=0.5;entryY=0;entryDx=0;entryDy=0;" parent="1" source="nM1pig36FVvHw8UYPWbk-8" target="nM1pig36FVvHw8UYPWbk-5" edge="1">
          <mxGeometry relative="1" as="geometry" />
        </mxCell>
        <mxCell id="nM1pig36FVvHw8UYPWbk-8" value="Admin" style="shape=umlActor;verticalLabelPosition=bottom;verticalAlign=top;html=1;outlineConnect=0;" parent="1" vertex="1">
          <mxGeometry x="32" y="70" width="30" height="60" as="geometry" />
        </mxCell>
        <mxCell id="nM1pig36FVvHw8UYPWbk-10" value="Any other network zone" style="swimlane;whiteSpace=wrap;html=1;" parent="1" vertex="1">
          <mxGeometry x="-780" y="248" width="380" height="392" as="geometry">
            <mxRectangle x="-780" y="248" width="170" height="30" as="alternateBounds" />
          </mxGeometry>
        </mxCell>
        <mxCell id="nM1pig36FVvHw8UYPWbk-11" value="Server" style="rounded=1;whiteSpace=wrap;html=1;arcSize=7;verticalAlign=top;" parent="nM1pig36FVvHw8UYPWbk-10" vertex="1">
          <mxGeometry x="23" y="50" width="281" height="260" as="geometry" />
        </mxCell>
        <mxCell id="nM1pig36FVvHw8UYPWbk-17" value="&lt;div&gt;docker compose&lt;/div&gt;&lt;div&gt;volumes&lt;br&gt;&lt;/div&gt;" style="shape=process;whiteSpace=wrap;html=1;backgroundOutline=1;" parent="nM1pig36FVvHw8UYPWbk-10" vertex="1">
          <mxGeometry x="53" y="97" width="120" height="60" as="geometry" />
        </mxCell>
        <mxCell id="nM1pig36FVvHw8UYPWbk-19" value="filesystem" style="shape=process;whiteSpace=wrap;html=1;backgroundOutline=1;" parent="nM1pig36FVvHw8UYPWbk-10" vertex="1">
          <mxGeometry x="53" y="157" width="120" height="60" as="geometry" />
        </mxCell>
        <mxCell id="nM1pig36FVvHw8UYPWbk-20" value="database" style="shape=process;whiteSpace=wrap;html=1;backgroundOutline=1;" parent="nM1pig36FVvHw8UYPWbk-10" vertex="1">
          <mxGeometry x="53" y="217" width="120" height="60" as="geometry" />
        </mxCell>
        <mxCell id="nM1pig36FVvHw8UYPWbk-25" style="edgeStyle=orthogonalEdgeStyle;rounded=0;orthogonalLoop=1;jettySize=auto;html=1;exitX=0;exitY=0.5;exitDx=0;exitDy=0;entryX=1;entryY=0.5;entryDx=0;entryDy=0;" parent="nM1pig36FVvHw8UYPWbk-10" source="nM1pig36FVvHw8UYPWbk-23" target="nM1pig36FVvHw8UYPWbk-17" edge="1">
          <mxGeometry relative="1" as="geometry" />
        </mxCell>
        <mxCell id="nM1pig36FVvHw8UYPWbk-26" style="edgeStyle=orthogonalEdgeStyle;rounded=0;orthogonalLoop=1;jettySize=auto;html=1;exitX=0;exitY=0.5;exitDx=0;exitDy=0;entryX=1;entryY=0.5;entryDx=0;entryDy=0;" parent="nM1pig36FVvHw8UYPWbk-10" source="nM1pig36FVvHw8UYPWbk-23" target="nM1pig36FVvHw8UYPWbk-19" edge="1">
          <mxGeometry relative="1" as="geometry" />
        </mxCell>
        <mxCell id="nM1pig36FVvHw8UYPWbk-27" style="edgeStyle=orthogonalEdgeStyle;rounded=0;orthogonalLoop=1;jettySize=auto;html=1;exitX=0;exitY=0.5;exitDx=0;exitDy=0;entryX=1;entryY=0.5;entryDx=0;entryDy=0;" parent="nM1pig36FVvHw8UYPWbk-10" source="nM1pig36FVvHw8UYPWbk-23" target="nM1pig36FVvHw8UYPWbk-20" edge="1">
          <mxGeometry relative="1" as="geometry" />
        </mxCell>
        <mxCell id="nM1pig36FVvHw8UYPWbk-23" value="ssh connect" style="shape=parallelogram;perimeter=parallelogramPerimeter;whiteSpace=wrap;html=1;fixedSize=1;" parent="nM1pig36FVvHw8UYPWbk-10" vertex="1">
          <mxGeometry x="243" y="97" width="120" height="60" as="geometry" />
        </mxCell>
        <mxCell id="nM1pig36FVvHw8UYPWbk-24" value="fetch target backup data" style="edgeStyle=orthogonalEdgeStyle;rounded=0;orthogonalLoop=1;jettySize=auto;html=1;exitX=0;exitY=0.5;exitDx=0;exitDy=0;" parent="1" source="nM1pig36FVvHw8UYPWbk-2" target="nM1pig36FVvHw8UYPWbk-23" edge="1">
          <mxGeometry relative="1" as="geometry" />
        </mxCell>
      </root>
    </mxGraphModel>
  </diagram>
</mxfile>
